<svg id="svg" version="1.1" xmlns="http://www.w3.org/2000/svg" xmlns:xlink="http://www.w3.org/1999/xlink" width="400" height="268.63607793840356" viewBox="0, 0, 400,268.63607793840356"><g id="svgg"><path id="path0" d="M139.154 53.894 C 138.918 54.016,138.543 54.158,138.321 54.208 C 138.099 54.259,137.504 54.462,137.000 54.661 C 136.496 54.859,135.558 55.202,134.917 55.422 C 134.275 55.643,133.450 55.933,133.083 56.068 C 132.215 56.386,127.524 58.056,125.500 58.767 C 124.629 59.073,123.392 59.517,122.750 59.753 C 122.108 59.989,121.133 60.322,120.583 60.493 C 119.146 60.940,117.967 61.356,117.585 61.551 C 117.402 61.644,117.027 61.777,116.751 61.847 C 116.476 61.917,115.162 62.362,113.833 62.836 C 112.504 63.310,111.291 63.735,111.138 63.782 C 110.827 63.875,110.371 65.551,110.481 66.196 C 110.497 66.291,111.961 65.848,113.917 65.156 C 114.192 65.058,115.279 64.687,116.333 64.331 C 117.388 63.975,119.000 63.411,119.917 63.077 C 121.954 62.334,123.062 61.942,124.583 61.424 C 125.225 61.206,126.162 60.867,126.667 60.672 C 128.469 59.974,128.924 59.809,129.417 59.670 C 129.692 59.592,130.329 59.369,130.833 59.174 C 131.337 58.979,132.237 58.640,132.833 58.422 C 133.429 58.204,134.329 57.864,134.833 57.667 C 135.337 57.470,135.938 57.245,136.167 57.167 C 136.913 56.913,138.375 56.348,138.413 56.298 C 138.673 55.961,139.673 53.936,139.635 53.823 C 139.606 53.739,139.390 53.771,139.154 53.894 M164.554 63.093 C 163.988 63.498,163.278 64.055,162.975 64.331 C 162.648 64.630,162.243 64.833,161.976 64.833 C 161.728 64.833,161.299 65.024,161.022 65.257 C 160.745 65.490,159.746 65.947,158.801 66.273 C 157.856 66.600,156.933 67.000,156.750 67.163 C 156.567 67.327,156.117 67.552,155.750 67.663 C 155.383 67.775,154.783 68.010,154.417 68.184 C 154.050 68.358,153.699 68.501,153.636 68.500 C 153.573 68.500,153.348 68.566,153.136 68.647 C 152.924 68.727,152.675 68.810,152.583 68.831 C 152.492 68.852,152.145 69.008,151.812 69.178 C 151.138 69.521,148.566 70.156,146.725 70.433 C 146.323 70.494,145.831 70.721,145.551 70.977 C 145.150 71.342,144.885 71.424,143.992 71.463 C 143.401 71.488,142.767 71.575,142.583 71.656 C 142.400 71.737,141.725 71.969,141.083 72.171 C 140.442 72.374,139.718 72.643,139.474 72.770 C 139.231 72.896,138.694 73.000,138.281 73.000 C 137.793 73.000,137.160 73.175,136.473 73.500 C 135.892 73.775,135.245 74.000,135.036 74.000 C 134.652 74.000,134.471 74.094,132.874 75.122 C 132.393 75.432,131.937 75.648,131.862 75.601 C 131.787 75.555,131.517 75.626,131.261 75.759 C 130.997 75.896,130.335 76.000,129.731 76.000 C 128.894 76.000,128.596 76.070,128.338 76.328 C 128.132 76.535,127.806 76.649,127.463 76.636 C 127.162 76.625,126.662 76.758,126.353 76.933 C 124.777 77.821,124.392 77.979,123.991 77.903 C 123.668 77.841,123.458 77.943,123.115 78.327 C 122.719 78.771,122.555 78.833,121.775 78.833 C 120.612 78.833,119.406 79.206,118.939 79.711 C 118.733 79.933,118.344 80.169,118.074 80.237 C 117.804 80.304,117.358 80.529,117.083 80.735 C 115.940 81.596,114.100 82.416,113.252 82.444 C 111.278 82.510,110.652 82.622,110.274 82.977 C 110.066 83.173,109.750 83.332,109.573 83.331 C 109.267 83.329,106.867 83.854,104.500 84.440 C 103.343 84.727,102.982 84.778,101.888 84.812 C 100.548 84.853,99.778 86.007,99.090 89.000 C 98.738 90.533,98.508 91.167,98.303 91.167 C 98.217 91.167,98.186 91.230,98.234 91.308 C 98.282 91.386,98.171 91.611,97.988 91.808 C 97.804 92.005,97.699 92.167,97.755 92.167 C 97.811 92.167,97.696 92.392,97.500 92.667 C 97.304 92.942,97.180 93.167,97.225 93.167 C 97.269 93.167,96.637 94.483,95.820 96.092 C 95.002 97.701,94.333 99.126,94.333 99.259 C 94.333 99.391,94.268 99.500,94.188 99.500 C 93.800 99.500,92.340 103.071,92.336 104.030 C 92.332 104.977,93.708 105.636,94.940 105.277 C 95.111 105.227,96.000 105.143,96.917 105.090 C 99.843 104.920,100.744 104.807,101.000 104.579 C 101.138 104.457,101.888 104.060,102.667 103.698 C 105.214 102.514,108.183 101.167,108.247 101.167 C 108.281 101.167,108.858 100.913,109.529 100.604 C 110.201 100.294,111.650 99.628,112.750 99.123 C 113.850 98.618,116.287 97.451,118.167 96.530 C 120.046 95.609,122.896 94.295,124.500 93.611 C 126.104 92.927,128.522 91.872,129.873 91.267 C 131.224 90.662,132.465 90.167,132.631 90.167 C 132.797 90.167,133.005 90.103,133.092 90.026 C 133.351 89.795,135.161 89.203,136.500 88.912 C 137.188 88.762,138.200 88.458,138.750 88.236 C 139.300 88.014,140.237 87.688,140.833 87.511 C 141.429 87.334,143.004 86.735,144.333 86.179 C 145.662 85.623,146.834 85.168,146.938 85.168 C 147.129 85.167,148.942 84.401,151.083 83.416 C 152.360 82.829,154.145 82.174,154.750 82.070 C 155.117 82.008,155.540 81.892,155.691 81.815 C 156.059 81.625,156.379 82.143,156.643 83.353 C 156.983 84.910,157.182 85.032,157.786 84.052 C 158.065 83.598,158.593 82.989,158.959 82.699 C 159.324 82.410,159.696 81.965,159.785 81.711 C 159.874 81.458,160.121 80.725,160.334 80.083 C 160.547 79.442,160.815 78.767,160.930 78.583 C 161.045 78.400,161.449 77.297,161.828 76.132 C 162.207 74.967,162.738 73.601,163.008 73.095 C 163.278 72.589,163.615 71.855,163.758 71.463 C 164.259 70.087,164.957 67.911,165.082 67.333 C 165.152 67.012,165.312 66.602,165.438 66.421 C 165.564 66.240,165.667 65.784,165.667 65.406 C 165.667 65.029,165.778 64.351,165.915 63.901 C 166.456 62.118,166.161 61.943,164.554 63.093 M303.733 76.433 C 303.284 76.671,302.429 77.224,301.833 77.662 C 301.237 78.100,300.487 78.591,300.167 78.753 C 299.846 78.915,298.871 79.517,298.000 80.091 C 297.129 80.664,296.098 81.299,295.708 81.501 C 294.769 81.987,294.762 82.013,295.356 82.786 L 295.868 83.453 295.876 87.685 C 295.884 91.931,295.850 92.427,295.403 94.583 C 295.270 95.225,295.049 96.313,294.912 97.000 C 294.775 97.688,294.445 99.339,294.179 100.670 C 293.912 102.001,293.645 103.651,293.585 104.337 C 292.866 112.499,287.803 128.028,284.697 131.596 C 284.611 131.695,284.489 131.939,284.426 132.138 C 284.363 132.337,284.250 132.500,284.175 132.500 C 284.100 132.500,283.991 132.631,283.933 132.792 C 283.747 133.306,283.267 133.989,282.568 134.730 C 282.469 134.836,282.356 135.010,282.318 135.117 C 282.188 135.487,280.275 137.540,279.614 138.019 C 278.841 138.579,277.977 138.650,277.317 138.207 C 276.322 137.540,274.231 134.928,274.120 134.214 C 274.095 134.050,274.021 133.832,273.956 133.728 C 273.306 132.687,272.955 128.339,273.339 126.083 C 273.432 125.533,273.548 124.783,273.596 124.417 C 273.805 122.825,274.760 119.292,275.466 117.500 C 275.556 117.271,275.760 116.746,275.918 116.333 C 276.346 115.220,276.788 114.174,277.500 112.592 C 277.683 112.185,277.833 111.764,277.833 111.657 C 277.833 111.550,278.222 110.815,278.697 110.023 C 281.197 105.853,284.088 103.294,287.665 102.086 L 288.747 101.720 287.832 101.414 C 286.419 100.943,284.839 100.987,283.269 101.543 C 282.546 101.799,281.084 102.182,280.019 102.394 C 278.071 102.783,277.235 103.112,276.176 103.904 C 275.860 104.140,275.510 104.333,275.398 104.333 C 275.286 104.333,275.169 104.393,275.139 104.465 C 275.108 104.538,274.349 105.044,273.451 105.589 C 269.853 107.774,267.667 110.948,267.667 113.986 C 267.667 114.597,267.546 115.544,267.399 116.090 C 267.251 116.636,267.069 117.308,266.994 117.583 C 266.919 117.858,266.585 118.946,266.253 120.000 C 265.533 122.283,265.271 123.938,265.517 124.643 C 265.640 124.997,265.630 125.414,265.481 126.110 C 265.367 126.645,265.249 127.496,265.219 128.000 C 265.189 128.504,265.121 129.188,265.067 129.520 C 265.005 129.900,265.059 130.300,265.213 130.603 C 265.348 130.867,265.511 131.522,265.576 132.059 C 265.848 134.293,266.237 135.167,266.958 135.167 C 267.143 135.167,267.705 135.504,268.206 135.917 C 268.707 136.329,269.218 136.667,269.342 136.667 C 269.501 136.667,269.515 136.718,269.389 136.845 C 269.168 137.066,265.748 136.776,264.652 136.444 C 262.172 135.692,260.251 133.842,259.521 131.500 C 258.619 128.609,257.810 125.194,257.507 123.000 C 257.311 121.579,257.049 119.892,256.925 119.250 C 256.732 118.253,256.485 116.589,256.233 114.583 C 256.198 114.308,256.094 113.723,256.001 113.283 C 255.909 112.843,255.788 112.093,255.733 111.616 C 255.678 111.140,255.529 110.300,255.402 109.750 C 255.256 109.114,255.170 107.718,255.167 105.917 C 255.164 104.358,255.095 102.979,255.015 102.851 C 254.753 102.438,253.504 102.717,252.409 103.435 C 250.992 104.363,251.011 104.352,248.145 105.764 L 245.540 107.047 245.674 107.565 C 245.924 108.533,246.213 111.645,246.119 112.351 C 246.031 113.002,246.423 118.541,246.830 122.417 C 247.358 127.444,247.494 128.892,247.572 130.285 C 247.688 132.350,248.949 134.696,250.233 135.232 C 250.689 135.423,250.952 135.754,251.591 136.943 C 253.788 141.029,255.261 142.597,256.590 142.263 C 256.857 142.196,257.296 142.282,257.778 142.495 C 259.959 143.460,263.461 142.749,265.508 140.925 C 265.924 140.554,266.930 139.800,267.744 139.250 C 268.557 138.700,269.457 138.017,269.744 137.732 L 270.266 137.214 270.884 137.733 C 271.224 138.018,271.633 138.512,271.793 138.831 C 272.388 140.017,273.978 140.710,276.293 140.793 C 279.962 140.925,282.873 139.516,286.865 135.676 C 287.765 134.811,288.560 134.061,288.631 134.009 C 288.750 133.924,289.493 133.047,291.248 130.919 C 291.614 130.476,291.989 129.980,292.081 129.817 C 292.174 129.654,292.521 129.123,292.851 128.636 C 294.465 126.258,295.154 124.973,295.161 124.320 C 295.165 124.041,295.306 123.815,295.564 123.677 C 295.893 123.501,295.980 123.288,296.071 122.441 C 296.132 121.877,296.520 120.329,296.934 119.000 C 298.022 115.507,298.236 114.981,298.287 115.662 C 298.301 115.841,298.421 116.234,298.555 116.535 C 299.055 117.663,299.185 118.243,299.426 120.417 C 299.592 121.911,299.624 121.977,300.246 122.094 C 300.855 122.208,300.906 122.294,301.090 123.500 C 301.152 123.912,301.345 124.565,301.519 124.949 C 301.692 125.334,301.833 125.755,301.833 125.884 C 301.833 126.014,302.012 126.384,302.231 126.706 C 302.457 127.039,302.574 127.380,302.503 127.495 C 302.387 127.682,302.691 128.837,303.753 132.250 C 303.982 132.983,304.276 134.183,304.408 134.917 C 305.384 140.363,307.701 142.836,310.641 141.572 C 311.403 141.244,313.472 140.220,313.917 139.950 C 315.356 139.076,316.996 137.942,317.320 137.598 L 317.710 137.182 316.480 137.212 C 314.703 137.255,312.500 136.320,312.500 135.523 C 312.500 135.361,312.271 134.559,311.992 133.740 C 311.090 131.096,310.625 129.030,309.410 122.267 C 309.280 121.544,309.139 120.831,309.096 120.684 C 309.054 120.537,308.972 120.024,308.915 119.544 C 308.858 119.064,308.741 118.427,308.654 118.128 C 308.568 117.828,308.455 116.946,308.404 116.167 C 308.352 115.388,308.207 114.450,308.080 114.083 C 307.866 113.463,307.446 110.801,307.000 107.250 C 306.897 106.425,306.708 105.075,306.580 104.250 C 306.453 103.425,306.260 102.075,306.153 101.250 C 306.045 100.425,305.852 99.412,305.725 99.000 C 305.592 98.570,305.423 96.793,305.328 94.833 C 305.237 92.954,305.128 91.321,305.085 91.205 C 305.043 91.088,305.081 89.251,305.170 87.122 C 305.627 76.182,305.532 75.479,303.733 76.433 M240.202 86.842 C 235.442 89.221,236.063 94.586,241.191 95.394 C 241.819 95.493,242.333 95.626,242.333 95.691 C 242.333 95.831,240.230 97.246,239.655 97.492 C 239.432 97.588,239.119 97.741,238.958 97.833 C 238.317 98.200,238.053 98.338,237.333 98.677 C 236.921 98.872,236.508 99.050,236.417 99.073 C 236.325 99.096,235.762 99.338,235.167 99.610 C 234.571 99.882,233.652 100.238,233.125 100.401 C 231.655 100.856,231.856 101.026,234.188 101.304 C 235.572 101.469,239.953 99.735,241.137 98.553 C 241.258 98.432,241.419 98.333,241.495 98.333 C 241.570 98.333,242.175 97.796,242.839 97.139 C 243.989 96.000,244.068 95.952,244.523 96.124 C 244.985 96.299,245.026 96.270,245.737 95.279 C 246.525 94.181,246.502 94.007,245.566 94.003 L 245.049 94.000 245.284 93.125 C 246.450 88.787,243.531 85.178,240.202 86.842 M241.489 88.273 C 243.098 88.595,244.560 91.544,244.059 93.457 C 243.875 94.162,239.630 92.630,238.714 91.528 C 237.347 89.882,239.123 87.800,241.489 88.273 M321.993 90.360 C 320.988 90.967,319.949 92.325,318.825 94.500 C 318.517 95.096,318.037 95.921,317.758 96.333 C 317.198 97.161,317.152 97.240,316.257 98.917 C 315.914 99.558,315.491 100.238,315.317 100.427 C 315.129 100.632,315.000 101.014,315.000 101.367 C 315.000 102.295,316.609 102.457,317.320 101.600 C 317.627 101.230,318.375 101.434,319.805 102.278 C 320.478 102.675,321.054 103.000,321.086 103.000 C 321.118 103.000,321.825 103.455,322.657 104.011 C 323.488 104.568,324.712 105.284,325.376 105.603 C 326.040 105.922,326.838 106.367,327.150 106.592 C 328.121 107.292,329.140 106.557,329.279 105.056 C 329.426 103.459,329.534 103.338,331.025 103.092 C 331.746 102.973,332.167 102.274,332.167 101.193 C 332.167 100.823,332.242 100.473,332.333 100.417 C 332.801 100.128,331.648 97.815,330.917 97.574 C 330.733 97.514,330.283 97.184,329.917 96.842 C 329.550 96.500,328.900 96.020,328.471 95.777 C 327.897 95.450,327.642 95.179,327.497 94.741 C 327.281 94.086,324.874 91.949,323.649 91.324 C 323.249 91.120,322.893 90.784,322.772 90.496 L 322.568 90.012 321.993 90.360 M201.750 96.449 C 201.259 96.563,198.900 97.462,197.751 97.973 C 196.753 98.416,193.288 100.634,192.500 101.334 C 192.271 101.537,191.633 102.048,191.083 102.469 C 189.028 104.044,184.056 108.325,183.667 108.854 C 183.621 108.917,183.065 109.540,182.432 110.239 C 181.799 110.938,180.991 111.898,180.638 112.372 C 180.284 112.846,179.940 113.275,179.872 113.325 C 179.805 113.375,179.643 113.623,179.513 113.875 C 179.383 114.127,179.215 114.333,179.139 114.333 C 179.062 114.333,179.000 114.446,179.000 114.583 C 179.000 114.721,178.925 114.833,178.833 114.833 C 178.742 114.833,178.667 114.911,178.667 115.005 C 178.667 115.100,178.381 115.681,178.033 116.297 C 177.684 116.913,177.253 117.773,177.075 118.208 C 176.896 118.643,176.694 118.999,176.625 118.999 C 176.556 119.000,176.500 119.105,176.500 119.233 C 176.500 119.362,175.938 120.642,175.250 122.078 C 174.563 123.514,174.000 124.748,174.000 124.819 C 174.000 124.890,173.883 125.184,173.740 125.471 C 173.596 125.758,173.443 126.201,173.398 126.455 C 173.354 126.709,173.251 127.179,173.169 127.500 C 173.088 127.821,172.979 128.481,172.928 128.968 C 172.877 129.454,172.760 129.992,172.669 130.163 C 172.577 130.334,172.461 130.761,172.410 131.112 C 172.359 131.463,172.278 131.862,172.230 132.000 C 171.751 133.381,171.867 134.572,172.554 135.321 C 172.878 135.674,173.473 137.543,173.313 137.706 C 173.090 137.933,174.637 140.142,175.887 141.383 L 177.364 142.850 178.224 142.800 L 179.083 142.750 179.240 141.939 L 179.397 141.127 181.513 141.244 C 183.210 141.338,183.723 141.314,184.106 141.119 C 184.369 140.986,184.958 140.824,185.417 140.760 C 186.728 140.577,187.630 140.270,189.796 139.267 C 190.906 138.754,191.892 138.333,191.988 138.333 C 192.368 138.333,193.973 137.217,194.956 136.270 C 195.957 135.305,197.434 134.185,197.722 134.173 C 197.799 134.169,198.402 133.719,199.063 133.172 C 200.317 132.135,201.201 131.667,201.904 131.667 C 202.337 131.667,202.339 131.671,202.577 133.333 C 202.799 134.879,202.994 135.845,203.140 136.117 C 203.228 136.282,203.300 136.474,203.299 136.545 C 203.284 137.581,203.777 138.954,204.371 139.537 C 204.732 139.891,205.244 140.646,205.510 141.215 C 206.321 142.955,206.627 143.162,208.881 143.502 C 212.237 144.007,216.479 142.635,218.625 140.351 C 219.119 139.825,219.123 139.827,218.208 140.119 C 215.828 140.878,214.083 140.390,213.419 138.779 C 213.262 138.397,213.067 137.957,212.988 137.802 C 212.689 137.219,211.757 130.035,211.900 129.417 C 211.943 129.233,212.024 128.221,212.080 127.167 C 212.136 126.112,212.218 124.875,212.263 124.417 C 212.308 123.958,212.415 122.871,212.501 122.000 C 212.737 119.622,212.717 119.000,212.404 119.000 C 211.796 119.000,206.589 122.334,206.361 122.869 C 206.331 122.941,206.240 123.000,206.160 123.000 C 206.080 123.000,205.838 123.169,205.622 123.375 C 205.406 123.581,204.788 124.125,204.250 124.583 C 203.184 125.492,201.927 126.727,200.500 128.269 C 199.685 129.150,198.489 130.269,197.315 131.249 C 196.044 132.311,195.673 132.608,195.336 132.833 C 195.131 132.971,194.691 133.295,194.360 133.554 C 193.654 134.105,191.836 134.997,190.417 135.488 C 189.867 135.679,189.342 135.932,189.250 136.050 C 189.141 136.191,188.587 136.279,187.649 136.303 L 186.215 136.340 185.530 135.597 C 185.153 135.188,184.794 134.642,184.733 134.385 C 184.671 134.127,184.549 133.826,184.462 133.715 C 183.279 132.210,183.379 127.024,184.667 123.167 C 185.234 121.468,185.454 120.870,185.986 119.583 C 186.564 118.185,187.994 115.469,188.752 114.330 C 189.255 113.574,189.667 112.916,189.667 112.867 C 189.667 112.818,189.781 112.659,189.922 112.514 C 190.062 112.369,190.790 111.425,191.539 110.417 C 192.288 109.408,193.163 108.299,193.484 107.951 C 193.805 107.602,194.267 106.955,194.509 106.511 C 195.264 105.130,199.562 99.620,201.611 97.406 C 202.661 96.270,202.666 96.237,201.750 96.449 M230.820 106.972 C 230.492 107.125,229.723 107.467,229.112 107.733 C 228.500 107.998,228.000 108.273,228.000 108.343 C 228.000 108.414,227.606 108.713,227.125 109.008 C 226.644 109.302,226.213 109.590,226.167 109.647 C 226.121 109.704,225.649 110.035,225.118 110.382 C 223.232 111.615,222.493 112.482,222.671 113.253 C 222.756 113.618,222.827 114.298,222.829 114.765 C 222.835 115.987,223.617 123.669,224.254 128.750 C 224.391 129.850,224.512 131.313,224.522 132.000 C 224.541 133.351,224.888 134.834,225.340 135.500 C 226.040 136.531,227.033 138.890,227.168 139.840 C 227.319 140.908,227.543 141.333,227.957 141.333 C 228.123 141.333,228.177 141.443,228.119 141.665 C 227.916 142.440,229.192 143.283,230.288 143.098 C 230.634 143.039,231.367 142.926,231.917 142.846 C 234.853 142.421,239.385 140.293,241.000 138.582 L 241.583 137.964 241.000 138.105 C 240.168 138.305,239.117 138.266,239.039 138.032 C 239.002 137.923,238.878 137.833,238.763 137.833 C 238.195 137.833,236.636 136.084,236.387 135.167 C 235.899 133.369,235.841 133.074,235.837 132.364 C 235.833 131.565,235.451 129.823,234.460 126.083 C 233.911 124.012,233.776 123.183,233.674 121.250 C 233.606 119.967,233.504 118.767,233.446 118.583 C 233.389 118.400,233.226 117.050,233.084 115.583 C 232.942 114.117,232.796 112.767,232.759 112.583 C 232.722 112.400,232.686 110.994,232.679 109.458 L 232.667 106.667 232.042 106.680 C 231.698 106.688,231.148 106.819,230.820 106.972 M326.495 108.815 C 326.354 108.871,325.604 109.338,324.828 109.853 C 324.052 110.367,322.892 111.064,322.250 111.400 C 318.709 113.256,317.998 113.979,319.134 114.567 C 319.690 114.854,320.000 115.463,320.000 116.267 C 320.000 116.589,320.069 117.167,320.154 117.551 C 320.239 117.936,320.397 119.112,320.505 120.167 C 320.736 122.413,321.151 124.654,321.839 127.374 C 322.111 128.450,322.333 129.461,322.333 129.619 C 322.333 129.917,323.191 132.804,323.585 133.833 C 323.708 134.154,324.195 135.467,324.666 136.750 C 325.138 138.033,325.627 139.308,325.752 139.583 C 325.878 139.858,326.238 140.758,326.553 141.583 C 327.893 145.089,328.267 145.682,328.870 145.260 C 329.388 144.897,329.424 144.920,329.429 145.625 C 329.437 146.777,329.597 147.058,330.475 147.458 C 331.299 147.834,332.007 147.937,332.230 147.714 C 332.296 147.649,332.665 147.508,333.050 147.401 C 335.081 146.840,338.465 145.107,340.642 143.513 C 341.590 142.818,342.824 141.912,343.384 141.500 C 344.274 140.845,344.855 140.221,346.042 138.651 C 346.638 137.862,346.286 137.233,345.441 137.580 C 345.153 137.699,344.654 137.850,344.333 137.917 C 344.012 137.983,343.310 138.329,342.773 138.686 C 342.235 139.042,341.729 139.333,341.648 139.333 C 341.566 139.333,341.500 139.407,341.500 139.497 C 341.500 139.587,341.313 139.707,341.083 139.765 C 340.854 139.822,340.667 139.927,340.667 139.998 C 340.667 140.225,339.703 140.534,339.347 140.421 C 339.158 140.361,338.662 139.869,338.246 139.328 C 337.829 138.786,337.369 138.277,337.224 138.195 C 337.078 138.114,336.937 137.844,336.910 137.595 C 336.882 137.346,336.728 136.867,336.567 136.530 C 336.406 136.193,336.036 135.335,335.744 134.624 C 335.452 133.913,335.017 133.094,334.778 132.805 C 334.538 132.516,334.218 131.898,334.066 131.432 C 333.914 130.965,333.737 130.508,333.673 130.417 C 333.610 130.325,333.421 129.875,333.255 129.417 C 333.089 128.958,332.736 128.257,332.470 127.858 C 332.205 127.459,331.805 126.771,331.581 126.328 C 331.357 125.886,331.102 125.480,331.016 125.427 C 330.930 125.373,330.724 124.974,330.559 124.540 C 330.394 124.105,330.060 123.563,329.818 123.333 C 329.362 122.903,329.157 122.200,328.601 119.167 C 328.458 118.388,328.227 117.161,328.087 116.441 C 327.948 115.720,327.833 114.857,327.833 114.523 C 327.833 114.188,327.757 113.652,327.663 113.332 C 327.462 112.643,326.868 109.771,326.799 109.148 C 326.763 108.834,326.679 108.741,326.495 108.815 M62.151 117.048 C 61.921 117.251,61.475 117.792,61.158 118.250 C 60.842 118.708,60.546 119.121,60.500 119.167 C 60.454 119.212,60.390 119.400,60.358 119.583 C 60.326 119.767,60.243 119.954,60.172 120.000 C 60.102 120.046,59.987 120.268,59.917 120.493 C 59.846 120.719,59.469 121.581,59.077 122.410 C 57.670 125.391,55.626 130.834,55.069 133.083 C 54.932 133.633,54.706 134.541,54.565 135.101 C 54.424 135.661,54.286 136.299,54.258 136.518 C 53.440 142.906,53.622 149.156,54.748 153.333 C 54.982 154.204,55.210 155.075,55.253 155.269 C 55.330 155.615,55.848 156.851,56.537 158.333 C 56.823 158.949,57.780 160.320,58.165 160.667 C 58.216 160.712,58.636 161.237,59.100 161.833 C 60.802 164.022,62.947 165.942,63.298 165.590 C 63.487 165.402,62.781 164.420,61.556 163.167 C 60.884 162.479,60.136 161.617,59.895 161.250 C 59.654 160.883,59.358 160.503,59.237 160.405 C 58.802 160.051,57.810 158.424,57.726 157.926 L 57.639 157.417 57.983 157.833 C 58.171 158.063,58.328 158.305,58.330 158.372 C 58.333 158.476,59.362 160.007,60.167 161.104 C 60.437 161.473,63.557 163.832,63.781 163.836 C 63.855 163.837,64.244 164.125,64.643 164.475 C 65.443 165.176,68.855 167.089,69.608 167.259 C 70.125 167.376,71.714 167.917,72.250 168.159 C 73.593 168.765,78.130 169.684,79.664 169.660 C 80.261 169.651,80.975 169.708,81.250 169.788 C 81.959 169.994,89.324 169.897,91.009 169.660 C 91.783 169.551,93.392 169.447,94.583 169.429 C 95.854 169.409,96.898 169.315,97.109 169.200 C 97.306 169.093,97.868 168.963,98.359 168.910 C 99.914 168.741,101.886 168.322,102.833 167.959 C 103.337 167.765,104.162 167.590,104.667 167.569 C 106.296 167.503,110.884 166.680,112.083 166.238 C 113.907 165.568,114.000 165.521,114.000 165.283 C 114.000 164.588,115.395 164.055,115.833 164.583 C 116.123 164.932,116.596 164.895,116.969 164.495 C 117.249 164.195,117.308 164.185,117.496 164.412 C 117.804 164.783,117.986 164.732,118.601 164.099 C 119.064 163.623,119.184 163.570,119.349 163.769 C 119.651 164.132,123.218 163.231,126.000 162.089 C 128.129 161.215,128.667 161.145,128.667 161.740 C 128.667 162.409,128.958 162.402,130.388 161.701 C 131.137 161.334,132.050 160.940,132.417 160.824 C 134.141 160.282,141.982 156.549,143.497 155.550 C 143.816 155.339,144.200 155.167,144.350 155.167 C 144.499 155.167,144.825 155.006,145.075 154.810 C 145.324 154.615,146.035 154.257,146.656 154.015 C 147.868 153.544,149.195 152.627,149.436 152.095 C 149.517 151.916,149.790 151.715,150.042 151.649 C 150.490 151.532,152.084 150.467,153.085 149.617 C 153.359 149.384,153.958 148.878,154.417 148.493 C 155.809 147.322,157.304 145.846,159.137 143.833 C 160.097 142.779,160.947 141.892,161.025 141.861 C 161.103 141.831,161.167 141.741,161.167 141.663 C 161.167 141.585,161.617 140.923,162.167 140.193 C 162.717 139.464,163.167 138.837,163.167 138.802 C 163.167 138.766,163.710 137.912,164.375 136.903 C 165.040 135.894,165.733 134.772,165.917 134.410 C 166.100 134.047,166.299 133.712,166.358 133.667 C 166.417 133.621,166.837 132.833,167.291 131.917 C 167.745 131.000,168.623 129.289,169.243 128.115 C 169.863 126.941,170.341 125.952,170.305 125.916 C 170.270 125.881,168.943 127.198,167.357 128.843 C 165.771 130.487,164.378 131.833,164.261 131.833 C 164.145 131.833,163.345 132.522,162.483 133.364 C 160.847 134.963,158.053 137.370,157.476 137.679 C 157.105 137.878,156.744 138.158,155.849 138.940 C 155.519 139.228,155.175 139.481,155.083 139.503 C 154.923 139.542,154.251 139.959,152.208 141.292 C 151.681 141.635,151.175 141.954,151.083 142.001 C 150.354 142.368,148.999 143.413,148.618 143.903 C 148.362 144.231,148.057 144.500,147.940 144.500 C 147.822 144.500,147.432 144.750,147.072 145.057 C 146.711 145.363,146.042 145.802,145.583 146.032 C 145.125 146.263,144.317 146.687,143.788 146.976 C 143.259 147.264,142.668 147.500,142.474 147.500 C 142.281 147.500,141.870 147.656,141.561 147.847 C 141.253 148.038,141.000 148.149,141.000 148.094 C 141.000 147.950,139.514 148.734,138.863 149.221 C 138.559 149.449,137.809 149.767,137.197 149.928 C 136.584 150.089,135.971 150.312,135.833 150.424 C 135.696 150.536,135.396 150.683,135.167 150.750 C 134.938 150.818,134.375 151.044,133.917 151.253 C 133.458 151.461,132.558 151.789,131.917 151.980 C 131.275 152.171,130.188 152.522,129.500 152.761 C 128.813 152.999,128.047 153.210,127.799 153.231 C 127.551 153.251,127.208 153.395,127.036 153.551 C 126.864 153.706,126.566 153.833,126.373 153.833 C 126.059 153.833,123.767 154.602,122.917 154.993 C 122.733 155.077,122.321 155.177,122.000 155.215 C 119.876 155.466,118.960 155.916,118.786 156.796 C 118.631 157.581,118.572 157.615,118.026 157.233 C 117.817 157.086,117.617 156.995,117.582 157.029 C 117.409 157.202,117.218 158.512,117.353 158.596 C 117.585 158.739,119.399 158.166,119.549 157.902 C 119.661 157.705,119.744 157.710,120.083 157.932 C 120.449 158.172,120.567 158.171,121.427 157.921 C 122.596 157.581,122.609 157.596,121.995 158.564 C 120.965 160.188,120.066 160.977,119.352 160.881 C 118.841 160.813,118.494 160.916,117.567 161.410 C 116.638 161.906,116.300 162.006,115.810 161.930 C 115.444 161.873,114.969 161.933,114.615 162.081 C 114.292 162.216,113.642 162.365,113.171 162.412 C 112.699 162.458,111.741 162.726,111.042 163.006 C 109.353 163.682,107.605 164.186,106.590 164.287 C 106.054 164.341,105.565 164.521,105.200 164.799 C 104.674 165.200,104.590 165.215,103.900 165.031 C 102.900 164.763,102.181 164.784,101.583 165.098 C 101.036 165.385,98.266 165.483,97.123 165.255 C 96.714 165.173,96.413 165.198,96.260 165.325 C 96.117 165.444,95.800 165.478,95.446 165.411 C 95.041 165.335,94.645 165.401,94.125 165.631 C 93.603 165.862,93.163 165.935,92.649 165.876 C 92.246 165.830,91.729 165.809,91.500 165.829 C 89.953 165.962,83.833 165.868,83.333 165.704 C 83.012 165.598,81.984 165.469,81.047 165.416 C 79.885 165.352,79.118 165.219,78.630 164.998 C 78.238 164.820,77.751 164.672,77.548 164.670 C 77.345 164.668,76.783 164.524,76.298 164.349 C 75.813 164.175,75.179 164.030,74.889 164.027 C 74.369 164.023,73.560 163.651,72.250 162.813 C 71.883 162.579,71.367 162.333,71.104 162.268 C 70.840 162.203,70.202 161.876,69.687 161.541 C 69.172 161.206,68.412 160.770,68.000 160.572 C 67.587 160.373,66.948 159.920,66.579 159.564 C 65.100 158.137,64.166 157.360,63.571 157.062 C 63.143 156.848,62.819 156.502,62.541 155.962 C 62.317 155.528,61.881 154.950,61.571 154.678 C 58.601 152.070,56.252 141.960,56.988 134.948 C 57.290 132.067,57.318 131.881,57.774 129.750 C 58.470 126.490,59.542 123.728,60.954 121.556 C 61.614 120.541,62.185 119.130,62.482 117.779 C 62.735 116.632,62.703 116.562,62.151 117.048 M331.000 146.531 C 331.000 146.809,330.510 146.654,330.259 146.296 C 329.800 145.640,329.955 145.395,330.500 145.917 C 330.775 146.180,331.000 146.457,331.000 146.531 M297.143 145.913 C 297.099 145.957,296.918 146.019,296.740 146.052 C 296.562 146.085,296.229 146.195,296.000 146.297 C 295.463 146.535,289.996 148.515,289.667 148.590 C 289.371 148.657,288.389 148.992,287.917 149.187 C 287.733 149.263,287.246 149.443,286.833 149.588 C 286.421 149.733,285.671 150.005,285.167 150.192 C 284.662 150.380,284.025 150.594,283.750 150.669 C 283.475 150.743,282.837 150.964,282.333 151.160 C 281.136 151.624,277.224 152.990,276.583 153.168 C 276.308 153.245,275.558 153.503,274.917 153.742 C 274.275 153.982,273.606 154.211,273.429 154.252 C 272.909 154.371,272.231 156.119,272.572 156.461 C 272.693 156.582,278.311 154.670,285.917 151.920 C 287.108 151.489,288.158 151.117,288.250 151.093 C 288.342 151.070,288.529 151.004,288.667 150.948 C 288.804 150.891,289.217 150.737,289.583 150.605 C 291.384 149.958,293.117 149.315,293.417 149.185 C 293.600 149.105,294.050 148.927,294.417 148.789 C 296.519 147.997,296.494 148.020,297.469 145.958 C 297.533 145.822,297.271 145.785,297.143 145.913 M204.248 161.717 C 203.974 161.912,203.713 162.117,203.667 162.172 C 203.621 162.227,203.152 162.556,202.624 162.903 C 201.387 163.716,201.485 162.578,201.537 175.583 L 201.583 186.917 203.292 186.964 L 205.000 187.012 205.000 174.266 C 205.000 167.255,204.943 161.484,204.873 161.441 C 204.803 161.398,204.522 161.522,204.248 161.717 M156.083 164.438 C 155.350 164.947,154.683 165.428,154.601 165.506 C 154.468 165.633,154.798 166.739,155.422 168.250 C 155.535 168.525,155.820 169.313,156.055 170.000 C 156.290 170.688,156.716 171.887,157.000 172.667 C 157.285 173.446,157.634 174.458,157.776 174.917 C 157.917 175.375,158.110 175.938,158.205 176.167 C 158.299 176.396,158.696 177.483,159.086 178.583 C 159.476 179.683,160.185 181.671,160.660 183.000 C 161.136 184.329,161.688 185.922,161.888 186.540 C 162.087 187.158,162.310 187.664,162.384 187.665 C 162.866 187.671,165.495 185.566,165.593 185.096 C 165.652 184.814,165.808 184.208,165.939 183.750 C 166.071 183.292,166.286 182.542,166.416 182.083 C 166.546 181.625,166.765 180.875,166.904 180.417 C 167.042 179.958,167.194 179.396,167.241 179.167 C 167.289 178.938,167.435 178.375,167.565 177.917 C 168.573 174.384,169.059 172.656,169.209 172.083 C 169.304 171.717,169.498 171.087,169.640 170.684 L 169.897 169.951 170.106 170.434 C 170.278 170.833,171.234 173.806,172.781 178.750 C 172.925 179.208,173.117 179.771,173.210 180.000 C 173.302 180.229,173.401 180.567,173.430 180.750 C 173.459 180.933,173.701 181.721,173.968 182.500 C 174.685 184.590,175.500 187.230,175.500 187.463 C 175.500 187.850,175.922 187.653,177.348 186.599 C 178.835 185.501,178.913 185.385,179.502 183.417 C 179.764 182.538,181.090 178.756,181.196 178.583 C 181.252 178.492,181.413 178.042,181.553 177.583 C 181.694 177.125,182.269 175.438,182.833 173.833 C 183.396 172.229,184.072 170.279,184.336 169.500 C 185.007 167.518,185.948 164.807,186.089 164.451 C 186.198 164.176,186.102 164.156,184.914 164.201 L 183.621 164.250 183.085 165.833 C 182.790 166.704,182.505 167.529,182.450 167.667 C 182.341 167.944,181.177 171.320,181.099 171.583 C 181.072 171.675,181.006 171.862,180.951 172.000 C 180.896 172.137,180.545 173.176,180.171 174.309 C 179.797 175.441,179.379 176.584,179.242 176.849 C 179.105 177.113,179.012 177.349,179.035 177.373 C 179.057 177.397,178.746 178.406,178.344 179.616 L 177.612 181.815 177.079 180.199 C 175.833 176.424,174.922 173.566,174.891 173.333 C 174.872 173.196,174.639 172.446,174.372 171.667 C 173.835 170.099,172.977 167.414,172.562 166.000 C 172.414 165.496,172.189 164.837,172.063 164.536 C 171.937 164.235,171.833 163.879,171.833 163.744 C 171.833 162.902,168.661 165.292,168.391 166.338 C 168.285 166.748,168.071 167.533,167.916 168.083 C 167.760 168.633,167.539 169.458,167.424 169.917 C 167.308 170.375,167.008 171.423,166.757 172.246 C 166.506 173.068,166.276 173.856,166.248 173.996 C 166.142 174.511,164.404 180.831,164.231 181.333 C 164.114 181.670,163.977 181.419,163.500 180.000 C 163.126 178.886,162.259 176.442,160.840 172.500 C 160.065 170.348,159.677 169.257,158.503 165.917 C 157.749 163.769,157.639 163.499,157.521 163.506 C 157.464 163.510,156.817 163.929,156.083 164.438 M249.689 170.172 C 248.367 170.446,246.731 171.394,245.716 172.474 L 245.349 172.865 245.300 171.724 L 245.250 170.583 243.667 170.583 L 242.083 170.583 242.040 178.792 L 241.997 187.000 243.665 187.000 L 245.333 187.000 245.333 180.189 L 245.333 173.378 245.958 172.967 C 248.398 171.365,251.030 172.253,251.896 174.970 C 252.274 176.155,252.316 176.852,252.325 182.125 L 252.333 187.000 254.009 187.000 L 255.684 187.000 255.619 180.458 C 255.583 176.860,255.523 173.777,255.485 173.606 C 255.444 173.419,255.549 173.221,255.750 173.106 C 255.933 173.002,256.124 172.863,256.173 172.797 C 256.893 171.838,259.575 172.049,260.684 173.153 C 262.043 174.505,262.048 174.530,262.120 181.375 L 262.179 187.000 263.843 187.000 L 265.507 187.000 265.489 180.542 C 265.470 173.265,265.440 173.046,264.286 171.736 C 262.212 169.379,258.646 169.571,256.054 172.179 L 255.256 172.983 254.803 172.255 C 253.809 170.659,251.627 169.770,249.689 170.172 M192.309 170.475 C 191.173 170.771,190.441 171.202,189.220 172.294 C 188.837 172.636,188.225 173.096,187.861 173.315 C 183.630 175.860,182.863 181.488,186.274 184.965 C 189.301 188.049,194.856 188.155,197.739 185.182 C 198.429 184.471,198.465 184.136,197.806 184.553 C 194.643 186.557,189.054 184.288,187.516 180.375 L 187.172 179.500 191.849 179.500 L 196.527 179.500 198.034 178.468 L 199.541 177.435 199.455 175.843 C 199.240 171.898,196.047 169.499,192.309 170.475 M215.667 170.422 C 214.442 170.803,213.068 171.660,212.531 172.377 C 212.410 172.539,212.035 172.821,211.697 173.004 C 210.739 173.523,210.481 173.708,209.835 174.333 C 206.714 177.358,206.690 182.079,209.780 185.125 C 210.361 185.698,210.923 186.167,211.030 186.167 C 211.137 186.167,211.342 186.269,211.487 186.394 C 212.969 187.674,217.309 187.592,219.618 186.239 C 220.985 185.437,222.386 183.957,221.208 184.559 C 219.442 185.461,216.169 185.307,214.224 184.231 C 213.340 183.742,211.677 182.207,211.670 181.875 C 211.668 181.760,211.605 181.667,211.530 181.667 C 210.891 181.667,210.245 178.462,210.521 176.660 C 211.107 172.833,214.167 171.285,217.866 172.945 L 218.819 173.372 219.835 172.644 C 221.687 171.318,221.636 171.374,221.252 171.078 C 220.217 170.279,217.249 169.930,215.667 170.422 M230.500 170.396 C 229.372 170.724,228.108 171.417,227.189 172.208 C 226.737 172.598,226.052 173.104,225.665 173.333 C 223.016 174.905,221.582 178.538,222.398 181.605 C 223.884 187.187,230.672 189.220,235.000 185.381 C 235.412 185.015,235.994 184.590,236.292 184.437 C 238.020 183.547,239.610 181.166,239.991 178.893 C 240.873 173.639,235.594 168.913,230.500 170.396 M275.667 170.471 C 274.554 170.763,273.643 171.317,272.339 172.495 C 271.930 172.864,271.528 173.167,271.447 173.167 C 271.280 173.167,270.125 174.035,269.524 174.612 C 266.913 177.121,266.824 182.285,269.350 184.811 C 272.532 187.992,277.601 188.224,280.875 185.337 C 281.755 184.560,281.909 184.201,281.208 184.559 C 277.527 186.438,272.423 184.367,270.841 180.352 L 270.505 179.500 275.174 179.500 L 279.844 179.500 280.964 178.761 C 282.891 177.490,282.875 177.515,282.802 175.854 C 282.631 171.959,279.369 169.498,275.667 170.471 M193.630 172.962 C 195.132 173.670,196.500 175.510,196.500 176.823 L 196.500 177.333 193.161 177.333 C 189.487 177.333,189.810 177.257,188.042 178.542 L 187.167 179.177 187.167 177.781 C 187.167 173.395,190.026 171.263,193.630 172.962 M231.367 172.519 C 234.955 173.275,237.359 176.504,237.125 180.253 C 237.043 181.562,236.933 181.935,236.126 183.620 C 235.658 184.598,234.300 185.163,232.417 185.163 C 226.693 185.163,223.202 178.963,226.115 173.972 C 226.962 172.522,228.870 171.994,231.367 172.519 M276.567 172.768 C 276.833 172.895,277.133 173.000,277.234 173.000 C 277.988 173.001,279.833 175.715,279.833 176.824 L 279.833 177.333 276.484 177.333 L 273.135 177.333 271.836 178.228 L 270.538 179.122 270.452 178.479 C 269.895 174.329,273.265 171.182,276.567 172.768 M308.333 201.494 L 308.333 214.167 312.351 214.167 L 316.368 214.167 317.142 213.640 C 317.568 213.351,318.479 212.740,319.167 212.283 C 324.168 208.958,325.223 202.791,321.422 199.097 C 319.586 197.313,315.508 196.719,313.917 198.004 C 313.825 198.078,313.694 198.145,313.625 198.153 C 313.380 198.181,311.833 199.368,311.795 199.557 C 311.774 199.663,311.718 197.313,311.670 194.333 L 311.583 188.917 309.958 188.869 L 308.333 188.821 308.333 201.494 M268.833 191.105 C 268.421 191.416,267.764 191.876,267.373 192.127 C 266.982 192.378,266.618 192.733,266.563 192.917 C 266.508 193.100,266.366 193.475,266.247 193.750 C 266.006 194.306,264.928 197.037,263.747 200.083 C 262.927 202.195,262.437 203.426,262.086 204.250 C 261.968 204.525,261.780 205.012,261.667 205.333 C 261.554 205.654,261.342 206.179,261.197 206.500 C 261.052 206.821,260.917 207.180,260.897 207.298 C 260.861 207.514,259.730 210.360,259.493 210.832 C 259.275 211.267,258.333 213.847,258.333 214.011 C 258.333 214.326,260.668 214.196,260.770 213.875 C 260.822 213.715,260.929 213.433,261.009 213.250 C 261.089 213.067,261.424 212.204,261.754 211.333 C 262.457 209.475,262.819 208.544,263.016 208.083 C 263.094 207.900,263.301 207.375,263.476 206.917 L 263.794 206.083 268.061 206.039 L 272.329 205.994 272.650 206.706 C 272.827 207.097,273.661 209.029,274.503 211.000 C 276.194 214.956,276.191 214.950,276.519 214.628 C 276.646 214.503,277.162 214.123,277.667 213.783 C 279.101 212.817,279.216 212.706,279.124 212.383 C 279.027 212.041,276.181 205.347,275.597 204.083 C 275.385 203.625,274.891 202.500,274.499 201.583 C 274.108 200.667,273.584 199.467,273.335 198.917 C 273.086 198.367,272.563 197.167,272.172 196.250 C 271.782 195.333,271.364 194.358,271.245 194.083 C 271.125 193.808,270.750 192.946,270.411 192.167 C 269.635 190.380,269.719 190.436,268.833 191.105 M326.302 191.471 C 324.767 192.604,324.791 192.510,325.875 193.174 C 326.356 193.469,326.787 193.757,326.833 193.814 C 327.398 194.513,327.941 194.318,330.208 192.601 C 330.636 192.277,330.621 192.258,329.132 191.342 C 327.504 190.340,327.857 190.324,326.302 191.471 M224.702 196.256 C 224.126 196.665,223.588 197.000,223.508 197.000 C 223.427 197.000,223.336 197.061,223.306 197.136 C 223.275 197.210,222.537 197.780,221.667 198.401 C 219.690 199.812,219.684 199.833,221.311 199.833 L 222.649 199.833 222.700 205.042 L 222.750 210.250 223.275 211.333 C 224.358 213.565,225.744 214.422,228.247 214.408 C 229.989 214.398,230.972 214.002,232.018 212.889 C 232.735 212.127,232.995 211.564,232.544 211.751 C 229.690 212.937,227.727 212.281,226.555 209.750 L 226.091 208.750 226.033 204.292 L 225.975 199.833 227.827 199.833 C 229.681 199.833,230.085 199.728,230.782 199.065 C 230.892 198.961,231.323 198.660,231.740 198.396 C 232.860 197.689,232.786 197.667,229.250 197.667 L 226.000 197.667 226.000 196.583 C 226.000 195.301,226.033 195.310,224.702 196.256 M268.504 197.083 C 268.799 197.817,269.183 198.717,269.356 199.083 C 269.530 199.450,270.042 200.612,270.494 201.667 L 271.317 203.583 268.958 203.630 C 267.283 203.663,266.524 203.741,266.341 203.899 C 266.093 204.114,264.621 205.147,264.224 205.385 C 264.118 205.448,264.330 204.731,264.694 203.792 C 265.058 202.852,265.545 201.596,265.774 201.000 C 266.827 198.272,267.043 197.718,267.240 197.250 C 267.355 196.975,267.546 196.504,267.664 196.203 C 267.782 195.902,267.898 195.677,267.922 195.703 C 267.946 195.729,268.208 196.350,268.504 197.083 M241.917 197.279 C 240.200 197.660,237.901 198.884,237.410 199.677 C 237.355 199.766,237.000 199.996,236.621 200.190 C 234.410 201.318,232.776 204.149,232.794 206.823 C 232.837 213.354,240.535 216.802,245.525 212.525 C 246.044 212.081,246.806 211.519,247.219 211.277 C 250.317 209.462,251.623 204.895,249.991 201.584 C 248.497 198.551,244.878 196.622,241.917 197.279 M298.333 197.285 C 296.801 197.554,295.268 198.374,294.109 199.543 C 293.134 200.527,293.180 200.647,294.313 200.078 C 297.674 198.390,301.191 199.800,301.909 203.125 L 302.026 203.667 300.321 203.667 L 298.615 203.667 297.436 204.458 C 296.788 204.894,296.110 205.381,295.931 205.542 C 295.751 205.702,295.485 205.833,295.341 205.833 C 293.778 205.833,292.082 208.720,292.523 210.629 C 293.372 214.308,299.182 215.354,301.759 212.293 L 302.167 211.808 302.167 212.987 L 302.167 214.167 303.844 214.167 L 305.521 214.167 305.465 207.792 C 305.403 200.689,305.446 200.971,304.162 199.286 C 303.017 197.782,300.474 196.909,298.333 197.285 M336.817 197.480 C 335.349 197.886,334.427 198.400,333.383 199.396 C 332.332 200.398,332.373 200.592,333.521 200.042 C 336.948 198.402,341.167 200.313,341.167 203.506 C 341.167 203.599,340.430 203.667,339.427 203.667 L 337.687 203.667 336.385 204.602 C 335.669 205.116,334.745 205.701,334.331 205.901 C 330.127 207.935,330.785 213.001,335.385 214.011 C 337.128 214.394,339.428 213.705,340.722 212.411 L 341.333 211.800 341.333 212.983 L 341.333 214.167 343.008 214.167 L 344.682 214.167 344.633 207.875 L 344.583 201.583 344.143 200.646 C 343.652 199.598,342.674 198.432,341.991 198.079 C 340.349 197.230,338.497 197.015,336.817 197.480 M288.497 197.388 C 288.450 197.438,288.225 197.508,287.997 197.544 C 287.277 197.659,286.605 198.047,285.875 198.767 L 285.167 199.467 285.167 198.567 L 285.167 197.667 283.500 197.667 L 281.833 197.667 281.833 205.917 L 281.833 214.167 283.500 214.167 L 285.167 214.167 285.167 207.105 L 285.167 200.043 285.940 199.827 C 286.899 199.558,287.964 199.797,288.808 200.468 C 289.822 201.275,289.789 201.267,290.243 200.840 C 290.476 200.621,290.668 200.511,290.669 200.596 C 290.671 200.681,290.727 200.673,290.794 200.578 C 290.862 200.483,291.310 200.121,291.792 199.772 C 292.814 199.031,292.759 199.158,292.292 198.624 C 291.576 197.807,288.924 196.943,288.497 197.388 M326.076 197.875 C 326.032 197.990,326.016 201.683,326.040 206.083 L 326.083 214.083 327.708 214.131 L 329.333 214.179 329.333 205.923 L 329.333 197.667 327.745 197.667 C 326.628 197.667,326.133 197.728,326.076 197.875 M242.795 199.813 C 246.984 201.328,248.986 206.064,247.109 210.016 C 246.345 211.627,246.190 211.732,243.861 212.211 C 238.591 213.296,233.990 206.828,236.420 201.750 C 237.232 200.054,237.590 199.757,239.049 199.574 C 239.426 199.526,239.776 199.446,239.826 199.396 C 239.984 199.236,241.975 199.516,242.795 199.813 M316.928 200.018 C 317.531 200.303,318.064 200.640,318.113 200.768 C 318.162 200.895,318.288 201.002,318.393 201.005 C 318.630 201.012,319.511 202.184,319.981 203.120 C 320.821 204.790,321.025 207.705,320.416 209.337 C 319.901 210.718,319.617 211.333,319.494 211.333 C 319.427 211.333,319.333 211.483,319.285 211.667 C 319.201 211.988,319.058 212.000,315.432 212.000 L 311.667 212.000 311.667 206.034 L 311.667 200.069 312.375 199.797 C 313.645 199.309,315.632 199.405,316.928 200.018 M302.167 208.579 L 302.167 211.326 301.728 211.613 C 301.034 212.068,298.464 212.032,297.583 211.556 C 295.599 210.482,294.806 208.644,295.512 206.756 L 295.857 205.833 299.012 205.833 L 302.167 205.833 302.167 208.579 M341.333 208.579 L 341.333 211.325 340.549 211.682 C 337.156 213.228,332.971 209.389,334.756 206.368 L 335.072 205.833 338.203 205.833 L 341.333 205.833 341.333 208.579 " stroke="none" fill="#5c8c2c" fill-rule="evenodd"></path><path id="path1" d="M132.083 90.423 C 131.808 90.571,130.871 90.995,130.000 91.365 C 129.129 91.734,128.004 92.226,127.500 92.456 C 126.522 92.904,126.492 92.917,124.833 93.594 C 123.036 94.328,120.357 95.577,117.015 97.238 C 115.273 98.104,113.263 99.072,112.549 99.388 C 111.835 99.705,110.556 100.270,109.709 100.645 C 108.861 101.019,107.603 101.590,106.913 101.913 C 106.224 102.236,105.625 102.500,105.582 102.500 C 105.427 102.500,101.000 104.649,101.000 104.724 C 101.000 104.815,101.771 104.741,104.167 104.420 C 107.173 104.017,109.027 103.878,110.667 103.932 C 111.537 103.960,112.561 103.990,112.940 103.998 C 113.320 104.006,113.869 104.081,114.159 104.165 C 114.506 104.264,114.827 104.253,115.089 104.134 C 115.403 103.991,115.659 104.015,116.268 104.248 C 116.882 104.483,117.309 104.523,118.296 104.439 C 119.073 104.374,119.790 104.407,120.190 104.527 C 120.682 104.674,120.937 104.673,121.269 104.522 C 121.533 104.401,121.779 104.382,121.894 104.474 C 121.998 104.556,123.093 104.677,124.327 104.741 C 125.560 104.806,126.706 104.932,126.872 105.021 C 127.039 105.110,127.492 105.180,127.879 105.176 C 130.466 105.152,131.931 105.207,132.083 105.333 C 132.269 105.487,133.000 105.456,133.283 105.281 C 133.375 105.224,133.593 105.285,133.767 105.417 C 133.941 105.548,134.283 105.658,134.528 105.661 C 134.772 105.664,134.997 105.741,135.028 105.831 C 135.085 106.001,136.276 106.171,139.718 106.503 C 141.236 106.649,141.870 106.788,142.489 107.109 C 142.931 107.339,143.619 107.570,144.019 107.624 C 144.418 107.677,144.845 107.821,144.968 107.944 C 145.090 108.066,145.433 108.167,145.729 108.167 C 146.025 108.167,146.351 108.251,146.455 108.355 C 146.745 108.645,148.314 109.146,149.328 109.274 C 149.874 109.342,150.375 109.517,150.578 109.711 C 151.120 110.227,152.589 110.833,153.298 110.833 C 153.758 110.833,154.153 110.981,154.640 111.333 C 155.020 111.608,155.394 111.833,155.472 111.833 C 155.550 111.833,155.970 112.170,156.407 112.582 C 156.843 112.994,157.486 113.558,157.836 113.835 L 158.472 114.339 158.665 113.755 C 158.951 112.887,159.103 112.917,159.146 113.850 C 159.172 114.416,159.288 114.788,159.509 115.009 C 159.687 115.187,159.833 115.395,159.833 115.470 C 159.833 115.545,160.080 115.884,160.382 116.223 L 160.931 116.839 161.441 116.340 C 161.722 116.065,162.000 115.889,162.059 115.948 C 162.233 116.122,162.182 116.967,161.995 117.030 C 161.756 117.109,162.117 118.098,162.660 118.849 C 163.135 119.507,163.305 119.882,164.349 122.583 C 164.987 124.233,165.065 124.592,165.125 126.167 C 165.192 127.922,165.136 128.262,164.380 130.719 C 164.244 131.160,164.180 131.569,164.239 131.627 C 164.349 131.738,170.833 125.222,170.833 125.002 C 170.833 124.897,171.414 123.467,172.018 122.083 C 172.393 121.224,173.211 118.864,173.288 118.417 C 173.336 118.142,173.439 117.836,173.518 117.737 C 173.846 117.322,174.333 114.087,174.326 112.363 C 174.316 109.779,173.951 108.411,173.022 107.483 C 172.127 106.587,171.420 105.566,171.270 104.949 C 171.184 104.599,171.081 104.505,170.860 104.575 C 170.419 104.715,169.500 103.750,169.500 103.147 C 169.500 102.606,169.397 102.557,169.004 102.913 C 168.762 103.132,168.674 103.106,168.189 102.663 C 167.891 102.390,167.613 102.167,167.573 102.167 C 167.533 102.167,167.365 102.035,167.201 101.875 C 167.036 101.715,166.575 101.321,166.176 101.000 C 165.777 100.679,165.218 100.212,164.934 99.962 C 164.649 99.711,163.772 99.176,162.984 98.772 C 162.196 98.367,161.221 97.824,160.817 97.565 C 159.786 96.904,159.031 96.500,158.825 96.500 C 158.550 96.500,157.199 95.854,157.084 95.667 C 157.027 95.575,156.837 95.500,156.662 95.500 C 156.488 95.500,156.098 95.394,155.797 95.264 C 154.022 94.499,152.467 94.000,151.855 94.000 C 151.470 94.000,150.989 93.894,150.786 93.765 C 149.867 93.181,143.294 91.798,142.822 92.090 C 142.722 92.152,142.535 92.052,142.406 91.869 C 142.223 91.607,141.908 91.511,140.961 91.428 C 139.537 91.303,137.029 90.913,135.500 90.578 C 133.620 90.167,132.640 90.123,132.083 90.423 M202.500 96.536 C 202.500 96.601,202.098 97.089,201.608 97.619 C 200.597 98.711,198.485 101.250,197.754 102.250 C 197.487 102.617,197.223 102.954,197.169 103.000 C 196.969 103.170,194.817 106.181,194.726 106.419 C 194.661 106.589,194.740 106.667,194.977 106.667 C 196.505 106.667,199.835 108.951,201.170 110.917 C 201.481 111.375,201.912 111.938,202.128 112.167 C 202.834 112.918,203.021 113.624,203.062 115.700 C 203.092 117.275,203.155 117.711,203.387 117.967 C 203.545 118.142,203.630 118.403,203.575 118.546 C 203.021 119.989,205.048 119.646,206.878 117.987 C 207.040 117.840,207.377 117.614,207.628 117.485 C 207.878 117.356,208.182 117.156,208.304 117.042 C 208.425 116.927,208.588 116.833,208.667 116.833 C 208.745 116.833,208.909 116.740,209.030 116.625 C 209.151 116.510,209.588 116.244,210.000 116.033 C 210.412 115.821,210.975 115.506,211.250 115.332 C 211.525 115.157,211.988 114.893,212.278 114.745 C 212.779 114.489,212.811 114.415,212.877 113.362 C 212.962 112.010,213.269 109.824,213.596 108.250 C 214.310 104.806,213.433 101.016,211.521 99.289 C 210.879 98.709,208.948 97.500,208.663 97.500 C 208.580 97.500,208.265 97.396,207.964 97.269 C 206.721 96.745,202.500 96.179,202.500 96.536 M288.833 101.845 C 288.833 101.930,288.693 102.000,288.521 102.000 C 285.951 102.000,281.500 105.723,278.825 110.110 C 277.633 112.066,277.644 111.849,278.712 112.390 C 281.627 113.865,284.138 117.407,284.266 120.224 C 284.365 122.381,284.399 122.632,284.623 122.856 C 284.724 122.958,284.770 123.138,284.724 123.256 C 284.679 123.375,284.801 124.210,284.996 125.111 C 285.191 126.013,285.422 127.162,285.509 127.667 C 285.860 129.707,285.847 129.701,286.612 128.137 C 287.668 125.977,288.561 123.797,289.400 121.333 C 290.447 118.260,290.535 117.989,290.674 117.417 C 290.740 117.142,290.963 116.317,291.168 115.583 C 291.374 114.850,291.600 113.987,291.671 113.667 C 291.743 113.346,291.961 112.371,292.157 111.500 C 292.679 109.182,292.993 107.589,293.229 106.066 L 293.439 104.715 292.634 103.983 C 291.819 103.240,288.833 101.561,288.833 101.845 M245.455 107.615 C 245.384 107.724,245.255 108.587,245.167 109.532 C 245.015 111.181,244.799 113.459,244.503 116.513 C 244.427 117.299,244.198 118.499,243.994 119.179 C 243.233 121.718,242.955 123.156,242.647 126.167 C 242.524 127.365,242.273 128.614,241.977 129.500 C 241.717 130.279,241.503 131.060,241.502 131.235 C 241.497 132.016,240.473 135.034,239.645 136.706 L 239.007 137.995 239.406 138.096 C 239.964 138.236,241.697 137.854,242.005 137.524 C 242.145 137.373,242.440 136.987,242.661 136.667 C 242.883 136.346,243.709 135.221,244.497 134.167 C 245.861 132.342,247.000 130.622,247.000 130.386 C 247.000 130.325,247.108 130.157,247.240 130.011 C 247.432 129.798,247.451 129.501,247.335 128.498 C 247.256 127.812,247.073 126.087,246.929 124.667 C 246.785 123.246,246.552 120.958,246.411 119.583 C 246.269 118.208,246.079 115.321,245.987 113.167 C 245.805 108.881,245.654 107.307,245.455 107.615 M222.457 113.833 C 222.226 114.631,222.002 116.424,221.999 117.500 C 221.994 118.773,221.430 123.876,221.264 124.145 C 221.124 124.371,220.671 126.008,220.497 126.917 C 220.427 127.283,220.290 127.808,220.194 128.083 C 220.098 128.358,219.894 129.071,219.741 129.667 C 219.411 130.948,219.039 132.192,218.744 133.000 C 218.626 133.321,218.367 134.033,218.167 134.583 C 217.967 135.133,217.722 135.771,217.622 136.000 C 217.522 136.229,217.432 136.454,217.422 136.500 C 217.359 136.776,215.814 139.556,215.562 139.846 C 214.940 140.562,215.324 140.589,218.029 140.018 C 219.275 139.755,220.500 138.766,220.500 138.024 C 220.500 137.934,220.556 137.836,220.625 137.806 C 220.694 137.775,220.907 137.525,221.098 137.250 C 222.374 135.419,223.000 134.460,223.000 134.337 C 223.000 134.258,223.056 134.169,223.125 134.139 C 223.285 134.068,224.000 133.051,224.000 132.895 C 224.000 132.830,224.120 132.644,224.266 132.482 C 224.500 132.224,224.509 131.997,224.344 130.636 C 224.153 129.065,223.879 126.699,223.429 122.750 C 223.077 119.656,222.668 115.406,222.619 114.333 C 222.587 113.639,222.548 113.518,222.457 113.833 M319.644 118.609 C 319.403 119.145,319.075 120.071,318.916 120.667 C 318.757 121.263,318.532 122.087,318.417 122.500 C 318.301 122.912,318.078 123.850,317.921 124.583 C 317.455 126.762,317.147 128.043,316.918 128.750 C 316.799 129.117,316.580 130.017,316.431 130.750 C 315.676 134.466,315.552 134.927,314.910 136.442 L 314.688 136.967 315.280 137.078 C 317.624 137.518,319.135 136.579,320.420 133.882 C 320.831 133.021,321.167 132.257,321.167 132.184 C 321.167 132.028,321.553 131.158,321.990 130.330 C 322.297 129.747,322.296 129.731,321.821 127.830 C 320.890 124.109,320.524 122.082,320.205 118.859 L 320.083 117.635 319.644 118.609 " stroke="none" fill="#3c6c2c" fill-rule="evenodd"></path><path id="path2" d="M281.910 105.875 L 281.083 106.750 281.958 105.923 C 282.440 105.468,282.833 105.074,282.833 105.048 C 282.833 104.924,282.679 105.062,281.910 105.875 M246.042 111.750 C 246.044 112.117,246.078 112.247,246.118 112.040 C 246.158 111.832,246.156 111.532,246.115 111.373 C 246.073 111.214,246.040 111.383,246.042 111.750 M222.709 115.750 C 222.711 116.117,222.745 116.247,222.785 116.040 C 222.824 115.832,222.823 115.532,222.781 115.373 C 222.739 115.214,222.707 115.383,222.709 115.750 M246.205 117.500 C 246.205 117.821,246.240 117.952,246.282 117.792 C 246.323 117.631,246.323 117.369,246.282 117.208 C 246.240 117.048,246.205 117.179,246.205 117.500 M246.705 122.833 C 246.705 123.154,246.740 123.285,246.782 123.125 C 246.823 122.965,246.823 122.702,246.782 122.542 C 246.740 122.381,246.705 122.513,246.705 122.833 M169.077 126.875 L 168.250 127.750 169.125 126.923 C 169.606 126.468,170.000 126.074,170.000 126.048 C 170.000 125.924,169.846 126.062,169.077 126.875 " stroke="none" fill="#44742c" fill-rule="evenodd"></path><path id="path3" d="" stroke="none" fill="#5c8c34" fill-rule="evenodd"></path><path id="path4" d="M222.714 114.417 C 222.716 114.875,222.748 115.043,222.786 114.789 C 222.825 114.536,222.824 114.161,222.784 113.956 C 222.744 113.751,222.713 113.958,222.714 114.417 M246.039 114.167 C 246.039 114.487,246.073 114.619,246.115 114.458 C 246.157 114.298,246.157 114.035,246.115 113.875 C 246.073 113.715,246.039 113.846,246.039 114.167 M246.209 116.417 C 246.211 116.783,246.245 116.914,246.285 116.706 C 246.324 116.499,246.323 116.199,246.281 116.040 C 246.239 115.880,246.207 116.050,246.209 116.417 M222.872 116.833 C 222.872 117.154,222.906 117.285,222.948 117.125 C 222.990 116.965,222.990 116.702,222.948 116.542 C 222.906 116.381,222.872 116.513,222.872 116.833 M246.372 118.333 C 246.372 118.654,246.406 118.785,246.448 118.625 C 246.490 118.465,246.490 118.202,246.448 118.042 C 246.406 117.881,246.372 118.013,246.372 118.333 M223.205 120.167 C 223.205 120.487,223.240 120.619,223.282 120.458 C 223.323 120.298,223.323 120.035,223.282 119.875 C 223.240 119.715,223.205 119.846,223.205 120.167 M246.872 123.667 C 246.872 123.987,246.906 124.119,246.948 123.958 C 246.990 123.798,246.990 123.535,246.948 123.375 C 246.906 123.215,246.872 123.346,246.872 123.667 M166.250 129.833 C 165.153 130.933,164.293 131.833,164.339 131.833 C 164.384 131.833,165.320 130.933,166.417 129.833 C 167.514 128.733,168.374 127.833,168.328 127.833 C 168.282 127.833,167.347 128.733,166.250 129.833 M53.720 143.000 C 53.720 143.596,53.750 143.840,53.787 143.542 C 53.824 143.244,53.824 142.756,53.787 142.458 C 53.750 142.160,53.720 142.404,53.720 143.000 M53.714 147.250 C 53.716 147.708,53.748 147.876,53.786 147.623 C 53.825 147.369,53.824 146.994,53.784 146.789 C 53.744 146.584,53.713 146.792,53.714 147.250 M252.241 181.917 C 252.240 184.667,252.263 185.815,252.291 184.469 C 252.319 183.122,252.319 180.872,252.291 179.469 C 252.263 178.065,252.241 179.167,252.241 181.917 M240.127 199.451 C 240.334 199.491,240.634 199.490,240.794 199.448 C 240.953 199.406,240.783 199.374,240.417 199.375 C 240.050 199.377,239.920 199.411,240.127 199.451 M222.573 204.333 C 222.573 206.854,222.596 207.885,222.625 206.625 C 222.653 205.365,222.653 203.302,222.625 202.042 C 222.596 200.781,222.573 201.813,222.573 204.333 M320.717 206.833 C 320.717 207.338,320.748 207.544,320.786 207.292 C 320.824 207.040,320.824 206.627,320.786 206.375 C 320.748 206.123,320.717 206.329,320.717 206.833 " stroke="none" fill="#4c7c2c" fill-rule="evenodd"></path></g></svg>